<svg width="21" height="19" viewBox="0 0 21 19" fill="none" xmlns="http://www.w3.org/2000/svg">
<path d="M5.655 7.60065H5.0025C4.11207 7.56847 3.22452 7.71963 2.39494 8.04475C1.56536 8.36987 0.811453 8.86202 0.18 9.49065L0 9.70065V15.9106H3.06V12.3856L3.4725 11.9206L3.66 11.7031C4.63644 10.7 5.85208 9.96186 7.1925 9.55815C6.5214 9.0475 5.99211 8.37363 5.655 7.60065V7.60065Z" fill="#6B718E"/>
<path d="M20.16 9.46812C19.5286 8.8395 18.7747 8.34735 17.9451 8.02223C17.1155 7.69711 16.228 7.54594 15.3375 7.57813C15.0644 7.5789 14.7916 7.59392 14.52 7.62313C14.1766 8.3483 13.6618 8.97897 13.02 9.46063C14.451 9.85651 15.7473 10.6343 16.77 11.7106L16.9575 11.9206L17.3625 12.3856V15.9181H20.3175V9.67813L20.16 9.46812Z" fill="#6B718E"/>
<path d="M4.98018 6.13814H5.21268C5.10465 5.21057 5.26741 4.27156 5.6813 3.43446C6.0952 2.59736 6.74254 1.89794 7.54518 1.42064C7.25423 0.976154 6.85283 0.614847 6.38028 0.372102C5.90774 0.129357 5.38026 0.0134952 4.84948 0.0358627C4.31871 0.0582301 3.80284 0.21806 3.35239 0.499701C2.90195 0.781342 2.53237 1.17514 2.27984 1.64253C2.02732 2.10992 1.90051 2.63488 1.91183 3.16601C1.92315 3.69713 2.07221 4.21621 2.34442 4.67242C2.61663 5.12863 3.00265 5.50632 3.46469 5.76851C3.92672 6.0307 4.44893 6.16841 4.98018 6.16814V6.13814Z" fill="#6B718E"/>
<path d="M14.9776 5.57565C14.9867 5.74803 14.9867 5.92077 14.9776 6.09315C15.1215 6.11597 15.2669 6.1285 15.4126 6.13065H15.5551C16.084 6.10245 16.5966 5.93777 17.043 5.65266C17.4893 5.36754 17.8543 4.97171 18.1023 4.50369C18.3502 4.03566 18.4728 3.5114 18.458 2.98195C18.4433 2.45249 18.2917 1.93588 18.018 1.48242C17.7443 1.02895 17.3578 0.654075 16.8962 0.394294C16.4347 0.134514 15.9137 -0.00132271 15.384 9.7086e-06C14.8544 0.00134213 14.3341 0.139798 13.8738 0.401898C13.4135 0.663998 13.029 1.04081 12.7576 1.49565C13.4364 1.93885 13.9946 2.54363 14.382 3.25573C14.7695 3.96782 14.9741 4.76497 14.9776 5.57565V5.57565Z" fill="#6B718E"/>
<path d="M10.0576 8.93562C11.9091 8.93562 13.4101 7.43466 13.4101 5.58312C13.4101 3.73159 11.9091 2.23062 10.0576 2.23062C8.20604 2.23062 6.70508 3.73159 6.70508 5.58312C6.70508 7.43466 8.20604 8.93562 10.0576 8.93562Z" fill="#6B718E"/>
<path d="M10.2375 10.7206C9.25806 10.6811 8.28072 10.8401 7.36431 11.1881C6.4479 11.5361 5.61136 12.0659 4.90503 12.7456L4.71753 12.9556V17.7031C4.72046 17.8578 4.75382 18.0103 4.81571 18.1521C4.87761 18.2938 4.96682 18.422 5.07826 18.5292C5.1897 18.6365 5.32117 18.7207 5.46517 18.7772C5.60918 18.8336 5.76289 18.8611 5.91753 18.8581H14.535C14.6897 18.8611 14.8434 18.8336 14.9874 18.7772C15.1314 18.7207 15.2629 18.6365 15.3743 18.5292C15.4857 18.422 15.5749 18.2938 15.6368 18.1521C15.6987 18.0103 15.7321 17.8578 15.735 17.7031V12.9706L15.555 12.7456C14.8533 12.0638 14.0197 11.5325 13.1053 11.1843C12.1909 10.8361 11.215 10.6783 10.2375 10.7206V10.7206Z" fill="#6B718E"/>
</svg>
