<svg width="19" height="20" viewBox="0 0 19 20" fill="none" xmlns="http://www.w3.org/2000/svg">
<path d="M9.37257 0C10.1066 0.008 10.8376 0.093 11.5546 0.253C11.7071 0.28705 11.8452 0.367903 11.9495 0.484261C12.0539 0.600618 12.1193 0.746668 12.1366 0.902L12.3066 2.429C12.3306 2.64428 12.4048 2.85093 12.5232 3.03231C12.6416 3.21368 12.801 3.36473 12.9884 3.47329C13.1759 3.58185 13.3862 3.64489 13.6025 3.65735C13.8187 3.6698 14.0349 3.63132 14.2336 3.545L15.6346 2.93C15.7768 2.86735 15.935 2.85044 16.0873 2.88161C16.2396 2.91278 16.3784 2.9905 16.4846 3.104C17.4965 4.18509 18.2501 5.48161 18.6886 6.896C18.7345 7.04464 18.7332 7.20389 18.6846 7.35171C18.6361 7.49953 18.5427 7.62858 18.4176 7.721L17.1756 8.637C17.0009 8.7653 16.8589 8.9329 16.761 9.12625C16.6631 9.31961 16.6121 9.53328 16.6121 9.75C16.6121 9.96672 16.6631 10.1804 16.761 10.3737C16.8589 10.5671 17.0009 10.7347 17.1756 10.863L18.4186 11.778C18.5441 11.8704 18.6378 11.9995 18.6865 12.1476C18.7353 12.2956 18.7367 12.4551 18.6906 12.604C18.2519 14.0183 17.4984 15.3148 16.4866 16.396C16.3807 16.5093 16.2422 16.5869 16.0904 16.6182C15.9385 16.6496 15.7807 16.6331 15.6386 16.571L14.2316 15.954C14.0332 15.867 13.8171 15.8279 13.6007 15.84C13.3844 15.852 13.174 15.9148 12.9865 16.0233C12.7989 16.1317 12.6396 16.2828 12.5213 16.4643C12.403 16.6458 12.3291 16.8526 12.3056 17.068L12.1366 18.594C12.1195 18.7476 12.0554 18.8923 11.953 19.0081C11.8506 19.1239 11.715 19.2053 11.5646 19.241C10.1161 19.5856 8.60702 19.5856 7.15857 19.241C7.00817 19.2053 6.87249 19.1239 6.7701 19.0081C6.66771 18.8923 6.60361 18.7476 6.58657 18.594L6.41857 17.07C6.39407 16.8552 6.31951 16.6491 6.20088 16.4683C6.08226 16.2876 5.92287 16.1372 5.73554 16.0292C5.54821 15.9212 5.33817 15.8587 5.12229 15.8467C4.90641 15.8347 4.69072 15.8735 4.49257 15.96L3.08657 16.576C2.94435 16.6383 2.78629 16.6549 2.63422 16.6236C2.48215 16.5922 2.34356 16.5145 2.23757 16.401C1.22528 15.3186 0.471701 14.0207 0.0335671 12.605C-0.0125365 12.4561 -0.0111165 12.2966 0.0376298 12.1486C0.0863761 12.0005 0.180027 11.8714 0.305567 11.779L1.54857 10.863C1.72341 10.7348 1.86561 10.5673 1.96362 10.3739C2.06163 10.1805 2.1127 9.96679 2.1127 9.75C2.1127 9.53321 2.06163 9.31947 1.96362 9.1261C1.86561 8.93273 1.72341 8.76517 1.54857 8.637L0.305567 7.723C0.180204 7.63052 0.0867521 7.50129 0.0381879 7.35327C-0.0103762 7.20525 -0.0116418 7.04577 0.0345671 6.897C0.473091 5.48262 1.22665 4.18611 2.23857 3.105C2.34475 2.99149 2.48358 2.91378 2.63585 2.88261C2.78813 2.85144 2.94632 2.86835 3.08857 2.931L4.48857 3.546C4.68759 3.63227 4.90407 3.67066 5.12061 3.65809C5.33716 3.64551 5.54774 3.58232 5.73544 3.4736C5.92314 3.36487 6.08271 3.21363 6.20135 3.03204C6.32 2.85045 6.39439 2.64356 6.41857 2.428L6.58857 0.902C6.60573 0.746355 6.67117 0.599984 6.77573 0.483414C6.88028 0.366845 7.0187 0.285924 7.17157 0.252C7.88857 0.0930001 8.62157 0.009 9.37257 0ZM9.36057 6.75C8.56492 6.75 7.80186 7.06607 7.23925 7.62868C6.67664 8.19129 6.36057 8.95435 6.36057 9.75C6.36057 10.5456 6.67664 11.3087 7.23925 11.8713C7.80186 12.4339 8.56492 12.75 9.36057 12.75C10.1562 12.75 10.9193 12.4339 11.4819 11.8713C12.0445 11.3087 12.3606 10.5456 12.3606 9.75C12.3606 8.95435 12.0445 8.19129 11.4819 7.62868C10.9193 7.06607 10.1562 6.75 9.36057 6.75Z" fill="#6B718E"/>
</svg>
