<svg width="34" height="34" viewBox="0 0 34 34" fill="none" xmlns="http://www.w3.org/2000/svg">
<path d="M34 11C34 13.9174 32.8411 16.7153 30.7782 18.7782C28.7153 20.8411 25.9174 22 23 22C20.0826 22 17.2847 20.8411 15.2218 18.7782C13.1589 16.7153 12 13.9174 12 11C12 8.08262 13.1589 5.28473 15.2218 3.22183C17.2847 1.15893 20.0826 0 23 0C25.9174 0 28.7153 1.15893 30.7782 3.22183C32.8411 5.28473 34 8.08262 34 11V11ZM17 10C16.7348 10 16.4804 10.1054 16.2929 10.2929C16.1054 10.4804 16 10.7348 16 11C16 11.2652 16.1054 11.5196 16.2929 11.7071C16.4804 11.8946 16.7348 12 17 12H26.586L23.292 15.292C23.199 15.385 23.1253 15.4954 23.075 15.6168C23.0246 15.7383 22.9987 15.8685 22.9987 16C22.9987 16.1315 23.0246 16.2617 23.075 16.3832C23.1253 16.5046 23.199 16.615 23.292 16.708C23.385 16.801 23.4954 16.8747 23.6168 16.925C23.7383 16.9754 23.8685 17.0013 24 17.0013C24.1315 17.0013 24.2617 16.9754 24.3832 16.925C24.5046 16.8747 24.615 16.801 24.708 16.708L29.708 11.708C29.8011 11.6151 29.875 11.5048 29.9254 11.3833C29.9758 11.2618 30.0018 11.1315 30.0018 11C30.0018 10.8685 29.9758 10.7382 29.9254 10.6167C29.875 10.4952 29.8011 10.3849 29.708 10.292L24.708 5.292C24.615 5.19902 24.5046 5.12527 24.3832 5.07495C24.2617 5.02464 24.1315 4.99874 24 4.99874C23.8685 4.99874 23.7383 5.02464 23.6168 5.07495C23.4954 5.12527 23.385 5.19902 23.292 5.292C23.199 5.38498 23.1253 5.49535 23.075 5.61683C23.0246 5.73831 22.9987 5.86851 22.9987 6C22.9987 6.13149 23.0246 6.26169 23.075 6.38317C23.1253 6.50465 23.199 6.61502 23.292 6.708L26.586 10H17Z" fill="#6B718E"/>
<path d="M23 24C26.3556 24.0044 29.582 22.7066 32 20.38V22.552C32 25.388 29.672 27.684 26.8 27.684H17.62L9.598 33.606C9.17224 33.9198 8.64028 34.054 8.11662 33.9795C7.59295 33.9051 7.11944 33.6281 6.798 33.208C6.54032 32.8685 6.40057 32.4542 6.4 32.028V27.684H5.2C2.328 27.684 0 25.386 0 22.552V9.132C0 6.298 2.328 4 5.2 4H12.044C10.7885 5.96484 10.0845 8.2312 10.0058 10.5616C9.92721 12.892 10.4768 15.2007 11.5971 17.2457C12.7173 19.2907 14.367 20.9967 16.3732 22.1851C18.3794 23.3734 20.6683 24.0003 23 24V24Z" fill="#6B718E"/>
</svg>
