<svg width="17" height="14" viewBox="0 0 17 14" fill="none" xmlns="http://www.w3.org/2000/svg">
<path d="M14.5469 2.07813H12.0234L11.4223 0.39336C11.3807 0.278076 11.3046 0.178425 11.2043 0.108021C11.104 0.0376166 10.9845 -0.000108103 10.8619 2.32681e-07H5.16934C4.91885 2.32681e-07 4.69434 0.157715 4.61084 0.39336L4.00781 2.07813H1.48438C0.664258 2.07813 0 2.74238 0 3.5625V12.0234C0 12.8436 0.664258 13.5078 1.48438 13.5078H14.5469C15.367 13.5078 16.0312 12.8436 16.0312 12.0234V3.5625C16.0312 2.74238 15.367 2.07813 14.5469 2.07813ZM8.01562 10.5391C6.37539 10.5391 5.04688 9.21055 5.04688 7.57031C5.04688 5.93008 6.37539 4.60156 8.01562 4.60156C9.65586 4.60156 10.9844 5.93008 10.9844 7.57031C10.9844 9.21055 9.65586 10.5391 8.01562 10.5391ZM6.23438 7.57031C6.23438 8.04273 6.42204 8.4958 6.75609 8.82985C7.09014 9.1639 7.54321 9.35156 8.01562 9.35156C8.48804 9.35156 8.94111 9.1639 9.27516 8.82985C9.60921 8.4958 9.79688 8.04273 9.79688 7.57031C9.79688 7.0979 9.60921 6.64483 9.27516 6.31078C8.94111 5.97673 8.48804 5.78906 8.01562 5.78906C7.54321 5.78906 7.09014 5.97673 6.75609 6.31078C6.42204 6.64483 6.23438 7.0979 6.23438 7.57031Z" fill="#9B9FB4"/>
</svg>
