<svg width="11" height="11" viewBox="0 0 11 11" fill="none" xmlns="http://www.w3.org/2000/svg">
<path d="M6.30825 5.48753L10.8677 0.940229C10.9579 0.835295 11.0049 0.700315 10.9996 0.562263C10.9942 0.424212 10.9369 0.293256 10.8389 0.195566C10.741 0.0978763 10.6097 0.0406467 10.4712 0.0353144C10.3328 0.0299821 10.1975 0.0769397 10.0922 0.166803L5.53275 4.71411L0.973249 0.161318C0.869682 0.0580278 0.729215 0 0.582749 0C0.436283 0 0.295816 0.0580278 0.192249 0.161318C0.0886819 0.264608 0.0304985 0.404699 0.0304985 0.550773C0.0304985 0.696848 0.0886819 0.836939 0.192249 0.940229L4.75725 5.48753L0.192249 10.0348C0.134674 10.084 0.0879128 10.1445 0.0549 10.2126C0.0218872 10.2806 0.00333558 10.3548 0.000409855 10.4303C-0.00251587 10.5058 0.0102471 10.5812 0.0378981 10.6516C0.0655492 10.722 0.107491 10.7859 0.161091 10.8393C0.214691 10.8928 0.278792 10.9346 0.349371 10.9622C0.41995 10.9898 0.495483 11.0025 0.571228 10.9996C0.646974 10.9967 0.721297 10.9782 0.789532 10.9452C0.857768 10.9123 0.918443 10.8657 0.967749 10.8083L5.53275 6.26096L10.0922 10.8083C10.1975 10.8981 10.3328 10.9451 10.4712 10.9398C10.6097 10.9344 10.741 10.8772 10.8389 10.7795C10.9369 10.6818 10.9942 10.5509 10.9996 10.4128C11.0049 10.2748 10.9579 10.1398 10.8677 10.0348L6.30825 5.48753Z" fill="#9B9FB4"/>
</svg>
