<svg width="23" height="23" viewBox="0 0 23 23" fill="none" xmlns="http://www.w3.org/2000/svg">
<path d="M12.4008 11.5L17.6972 6.20363C17.8018 6.08141 17.8565 5.9242 17.8503 5.76341C17.8441 5.60261 17.7774 5.45009 17.6636 5.3363C17.5499 5.22252 17.3973 5.15586 17.2365 5.14965C17.0758 5.14344 16.9185 5.19813 16.7963 5.3028L11.4999 10.5992L6.20354 5.29641C6.08323 5.17611 5.92007 5.10852 5.74993 5.10852C5.57979 5.10852 5.41662 5.17611 5.29632 5.29641C5.17601 5.41672 5.10843 5.57989 5.10843 5.75002C5.10843 5.92016 5.17601 6.08333 5.29632 6.20363L10.5991 11.5L5.29632 16.7964C5.22944 16.8537 5.17512 16.9242 5.13677 17.0034C5.09842 17.0827 5.07687 17.169 5.07347 17.257C5.07008 17.345 5.0849 17.4327 5.11702 17.5147C5.14914 17.5967 5.19786 17.6712 5.26012 17.7334C5.32239 17.7957 5.39685 17.8444 5.47883 17.8765C5.56082 17.9087 5.64856 17.9235 5.73655 17.9201C5.82453 17.9167 5.91087 17.8951 5.99013 17.8568C6.0694 17.8184 6.13988 17.7641 6.19715 17.6972L11.4999 12.4009L16.7963 17.6972C16.9185 17.8019 17.0758 17.8566 17.2365 17.8504C17.3973 17.8442 17.5499 17.7775 17.6636 17.6637C17.7774 17.55 17.8441 17.3974 17.8503 17.2366C17.8565 17.0758 17.8018 16.9186 17.6972 16.7964L12.4008 11.5Z" fill="white"/>
</svg>
