<svg width="12" height="14" viewBox="0 0 12 14" fill="none" xmlns="http://www.w3.org/2000/svg">
<path d="M0.84375 0C0.619974 4.71574e-09 0.405362 0.0888947 0.247129 0.247129C0.0888947 0.405362 0 0.619974 0 0.84375C0 1.06753 0.0888947 1.28214 0.247129 1.44037C0.405362 1.59861 0.619974 1.6875 0.84375 1.6875H10.4062C10.63 1.6875 10.8446 1.59861 11.0029 1.44037C11.1611 1.28214 11.25 1.06753 11.25 0.84375C11.25 0.619974 11.1611 0.405362 11.0029 0.247129C10.8446 0.0888947 10.63 4.71574e-09 10.4062 0H0.84375ZM6.22125 3.06C6.06305 2.90199 5.84859 2.81324 5.625 2.81324C5.40141 2.81324 5.18695 2.90199 5.02875 3.06L1.3725 6.71625C1.22346 6.8762 1.14232 7.08775 1.14618 7.30634C1.15003 7.52493 1.23859 7.73348 1.39318 7.88807C1.54776 8.04266 1.75632 8.13122 1.97491 8.13507C2.1935 8.13893 2.40505 8.05779 2.565 7.90875L4.78125 5.6925V12.6562C4.78125 12.88 4.87014 13.0946 5.02838 13.2529C5.18661 13.4111 5.40122 13.5 5.625 13.5C5.84878 13.5 6.06339 13.4111 6.22162 13.2529C6.37985 13.0946 6.46875 12.88 6.46875 12.6562V5.6925L8.685 7.90875C8.76225 7.99165 8.8554 8.05814 8.95889 8.10425C9.06239 8.15037 9.17412 8.17517 9.28741 8.17717C9.4007 8.17916 9.51324 8.15832 9.6183 8.11589C9.72336 8.07345 9.8188 8.01029 9.89892 7.93017C9.97904 7.85005 10.0422 7.75461 10.0846 7.64955C10.1271 7.54449 10.1479 7.43195 10.1459 7.31866C10.1439 7.20537 10.1191 7.09364 10.073 6.99014C10.0269 6.88665 9.9604 6.79349 9.8775 6.71625L6.22125 3.06Z" fill="#9B9FB4"/>
</svg>
