<svg width="16" height="16" viewBox="0 0 16 16" fill="none" xmlns="http://www.w3.org/2000/svg">
<path d="M2.1656 1.58409L14.2056 7.34294C14.3271 7.40112 14.4297 7.49248 14.5016 7.60649C14.5734 7.72049 14.6115 7.85249 14.6115 7.98723C14.6115 8.12197 14.5734 8.25397 14.5016 8.36797C14.4297 8.48198 14.3271 8.57334 14.2056 8.63152L2.1656 14.3904C2.04212 14.4496 1.90424 14.472 1.76836 14.455C1.63249 14.4381 1.50435 14.3824 1.39922 14.2947C1.29409 14.2069 1.21638 14.0908 1.17537 13.9602C1.13436 13.8296 1.13176 13.6899 1.16789 13.5578L2.37246 9.1418C2.3872 9.08768 2.41755 9.0391 2.45972 9.00211C2.50189 8.96512 2.55402 8.94136 2.6096 8.9338L8.44389 8.14123C8.46821 8.13782 8.49125 8.12819 8.51077 8.11327C8.53029 8.09836 8.54563 8.07866 8.55532 8.05609L8.5656 8.02009C8.57011 7.98818 8.5637 7.95569 8.54741 7.92789C8.53113 7.90009 8.50592 7.87861 8.47589 7.86694L8.44446 7.85837L2.61589 7.06637C2.56041 7.0587 2.50841 7.0349 2.46635 6.99792C2.42429 6.96094 2.39402 6.91241 2.37932 6.85837L1.16789 2.41666C1.13176 2.28458 1.13436 2.1449 1.17537 2.01426C1.21638 1.88361 1.29409 1.76751 1.39922 1.67978C1.50435 1.59205 1.63249 1.53639 1.76836 1.51942C1.90424 1.50245 2.04212 1.5249 2.1656 1.58409Z" fill="#9B9FB4"/>
</svg>
